HIERARCHY
ROOT Hips
{
	OFFSET 0.00000 0.00000 0.00000
	CHANNELS 6 Xposition Yposition Zposition Yrotation Zrotation Xrotation 
	JOINT Lumbar
	{
		OFFSET 0 0 0
		CHANNELS 3 Zrotation Xrotation Yrotation
		JOINT Neck
		{
			OFFSET 0.00 0.2701 0.00
			CHANNELS 3 Zrotation Xrotation Yrotation
			End Site
			{
				OFFSET 0.00 0.1379 0.00
			}
		}
		JOINT RightShoulder
		{
			OFFSET 0.0119 0.2289 0.1181
			CHANNELS 3 Zrotation Xrotation Yrotation
			JOINT RightElbow
			{
				OFFSET 0.00 -0.1475 0.00
				CHANNELS 2 Zrotation Yrotation
				JOINT RightWrist
				{
					OFFSET 0.00 -0.1605 0.00
					CHANNELS 2 Zrotation Xrotation
					End Site
					{
						OFFSET 0.0040 -0.1068 0.0006
					}
				}
			}
		}
		JOINT LeftShoulder
		{
			OFFSET 0.0119 0.2289 -0.1181
			CHANNELS 3 Zrotation Xrotation Yrotation
			JOINT LeftElbow
			{
				OFFSET 0.00 -0.1475 0.00
				CHANNELS 2 Zrotation Yrotation
				JOINT LeftWrist
				{
					OFFSET 0.00 -0.1605 0.00
					CHANNELS 2 Zrotation Xrotation
					End Site
					{
						OFFSET 0.0040 -0.1068 -0.0006
					}
				}
			}
		}
	}
	JOINT RightHip
	{
		OFFSET 0.0316 -0.0424 0.0458
		CHANNELS 3 Zrotation Xrotation Yrotation
		JOINT RightKnee
		{
			OFFSET 0.00 -0.2438 0.00
			CHANNELS 1 Zrotation
			JOINT RightAnkle
			{
				OFFSET 0.00 -0.2449 0.00
				CHANNELS 3 Zrotation Xrotation Yrotation
				End Site
				{
					OFFSET 0.1237 -0.0542 0.0051
				}
			}
		}
	}
	JOINT LeftHip
	{
		OFFSET 0.0316 -0.0424 -0.0458
		CHANNELS 3 Zrotation Xrotation Yrotation
		JOINT LeftKnee
		{
			OFFSET 0.00 -0.2438 0.00
			CHANNELS 1 Zrotation
			JOINT LeftAnkle
			{
				OFFSET 0.00 -0.2449 0.00
				CHANNELS 3 Zrotation Xrotation Yrotation
				End Site
				{
					OFFSET 0.1237 -0.0542 -0.0051
				}
			}
		}
	}
}
MOTION
Frames: 25
Frame Time: 0.02
0.04507 0.55878 0.06587 178.72104 0 8.93552 10.74196 -3.05544 -0.89477 -49.196 -14.67034 -11.38554 33.26758 -7.22725 34.64228 23.34762 123.21122 -18.94412 -11.98862 20.09273 63.54283 -19.9705 79.47063 -8.84951 -23.97798 -14.67732 17.26728 12.30842 -8.09596 -47.28198 1.21178 -2.82039 -4.68166 0.01349 -13.69324 32.28539 -12.66154 9.04346 -0.00138 -12.99949
0.04578 0.55917 0.06499 178.42796 0 8.79515 10.35053 -3.02227 -0.82565 -49.95707 -14.70037 -11.04524 33.63279 -6.36225 34.49743 23.12671 124.34133 -18.62958 -12.29002 16.97886 61.2401 -16.02611 80.55018 -11.40945 -23.08213 -13.9929 18.14287 12.37962 -8.19235 -48.41148 -0.13237 -2.59793 -4.28929 0.01988 -13.69428 31.11838 -12.3926 8.89209 0.0015 -13.01509
0.04662 0.55966 0.06411 178.18994 0 8.62362 9.93026 -3.00246 -0.68923 -50.63258 -14.69885 -10.69209 33.64036 -5.60893 34.66423 23.66153 125.59904 -19.20988 -12.47293 15.02962 58.48955 -12.87038 81.52536 -15.27666 -22.00943 -12.89158 19.20347 12.37463 -8.4641 -49.75355 -1.68267 -2.29498 -3.67551 0.02338 -13.6937 29.72684 -12.0732 8.68637 0.00046 -13.00594
0.0474 0.56011 0.06324 177.94062 0 8.46136 9.52317 -2.97489 -0.58983 -51.33907 -14.71374 -10.35474 33.81032 -4.80663 34.68093 23.83334 126.74856 -19.40023 -12.69749 12.55773 55.97545 -9.37516 82.5628 -18.47821 -21.10714 -11.98724 20.1727 12.40511 -8.66661 -50.95833 -3.08049 -2.04258 -3.19282 0.02873 -13.69148 28.39402 -11.77582 8.5027 -0.00733 -12.97377
0.04818 0.56053 0.06234 177.63535 0 8.3197 9.11529 -2.95511 -0.46578 -52.08478 -14.72305 -9.97591 33.98469 -3.9931 34.74582 24.08934 128.17057 -19.56203 -12.99525 10.02175 53.29343 -5.73173 83.54818 -22.00434 -19.8327 -11.04036 21.17831 12.43236 -8.82809 -52.34887 -4.72682 -1.73187 -2.58437 0.02964 -13.69971 27.24029 -11.47586 8.32762 0.01785 -13.09575
0.04901 0.56103 0.06149 177.45905 0 8.12698 8.70195 -2.92155 -0.37534 -52.72569 -14.73464 -9.67984 34.06421 -3.23222 34.78065 24.34933 129.03751 -19.9772 -13.10636 7.91286 50.86795 -2.61442 84.60837 -25.15267 -19.27698 -10.09046 22.14791 12.44807 -9.11498 -53.38828 -5.90746 -1.52237 -2.1823 0.04193 -13.68526 25.65871 -11.17613 8.12437 -0.02277 -12.87884
0.04996 0.56171 0.06074 177.62423 0 7.81003 8.28573 -2.85255 -0.40422 -53.10439 -14.76787 -9.61985 33.96013 -2.57409 34.64308 24.42978 128.27245 -20.90418 -12.70232 6.66189 49.23527 -0.71256 85.9566 -26.9889 -20.88774 -9.19341 22.99675 12.45123 -9.71047 -53.51892 -5.71305 -1.62277 -2.42739 0.06187 -13.61236 22.99247 -10.83555 7.83618 -0.27583 -11.84066
0.05098 0.56245 0.06005 177.91741 0 7.44108 7.86409 -2.76806 -0.46745 -53.37837 -14.80263 -9.64259 33.77404 -1.96876 34.46508 24.489 126.94742 -22.04407 -12.1163 5.81288 47.88473 0.668 87.37038 -28.3924 -23.20133 -8.31568 23.79741 12.44525 -10.42382 -53.26603 -5.04926 -1.82578 -2.88324 0.09788 -13.51551 19.90069 -10.50717 7.5252 -0.58847 -10.44663
0.05197 0.56317 0.05933 178.15221 0 7.09024 7.44178 -2.68689 -0.50768 -53.69583 -14.83147 -9.62478 33.6308 -1.34895 34.31214 24.56122 125.91396 -23.06027 -11.62906 4.80729 46.42524 2.25107 88.71951 -29.95196 -25.10482 -7.45772 24.60475 12.44298 -11.08068 -53.11588 -4.62557 -1.97491 -3.22755 0.1426 -13.42774 16.97211 -10.20876 7.23847 -0.85377 -9.13852
0.05294 0.56388 0.0586 178.38909 0 6.76207 7.03199 -2.62213 -0.57545 -54.02897 -14.88168 -9.61967 33.45144 -0.69076 34.14181 24.64533 124.73011 -24.22136 -11.07068 3.72796 44.8681 3.95978 90.22117 -31.70947 -27.39084 -6.46728 25.48541 12.43991 -11.76007 -53.28059 -4.09723 -2.1521 -3.63139 0.11971 -13.34944 14.14621 -9.75875 6.89217 -1.20717 -8.13065
0.05397 0.56463 0.05791 178.65228 0 6.37415 6.59484 -2.51905 -0.59657 -54.30415 -14.88768 -9.60705 33.3327 -0.12622 33.99437 24.69025 123.72396 -25.12038 -10.61819 2.88718 43.58752 5.28454 91.41088 -32.95916 -29.04194 -5.7594 26.19626 12.43735 -12.4132 -52.68903 -3.67121 -2.29592 -3.96331 0.24137 -13.24334 11.02944 -9.62791 6.66401 -1.38817 -6.43698
0.05513 0.56549 0.05726 178.94802 0 5.83939 6.08703 -2.31657 -0.4662 -54.45845 -14.77542 -9.56131 33.40147 0.21507 33.91475 24.6246 123.34778 -25.23041 -10.50656 2.56451 43.00328 5.74903 91.81886 -32.6991 -28.83637 -5.85661 26.4766 12.4378 -13.00164 -50.16041 -3.6546 -2.32624 -4.05751 0.75848 -13.08735 7.03243 -10.37573 6.77858 -1.10561 -2.73129
0.05634 0.5664 0.05663 179.267 0 5.24562 5.55149 -2.07571 -0.29061 -54.55618 -14.61814 -9.5039 33.53609 0.46016 33.85901 24.51796 123.16864 -25.0679 -10.50748 2.47049 42.68968 5.83481 91.89351 -31.97793 -27.95898 -6.23245 26.58194 12.439 -13.54813 -46.87426 -3.75411 -2.31941 -4.07373 1.41985 -12.90047 2.79134 -11.44344 7.01107 -0.64367 1.61486
0.05752 0.56728 0.056 179.5811 0 4.67523 5.02631 -1.85036 -0.1455 -54.67103 -14.47872 -9.44662 33.64205 0.73528 33.79411 24.43103 122.89673 -25.03331 -10.45494 2.29331 42.25341 6.05097 92.05819 -31.59881 -27.34095 -6.46561 26.74884 12.44133 -14.09356 -43.89352 -3.79118 -2.3272 -4.11499 2.01582 -12.71373 -1.21672 -12.36612 7.18264 -0.24451 5.53163
0.05872 0.56819 0.05535 179.87654 0 4.11675 4.5099 -1.63177 0.04005 -54.81739 -14.34972 -9.41356 33.73866 1.06678 33.72056 24.33874 122.61833 -24.9867 -10.40608 2.04196 41.8253 6.42691 92.48351 -30.63861 -26.92778 -6.77382 26.98949 12.43936 -14.74338 -41.05489 -3.85178 -2.34698 -4.19562 2.61422 -12.58413 -5.75108 -13.2922 7.38425 0.07855 10.04046
0.05989 0.56905 0.05474 180.21362 0 3.52112 3.96933 -1.3913 0.15293 -54.88736 -14.18902 -9.32681 33.87266 1.25806 33.67157 24.24873 122.40832 -24.90114 -10.37823 1.99566 41.44089 6.38417 92.28726 -30.79404 -25.93622 -6.98304 27.03628 12.44383 -15.14517 -37.75624 -3.89836 -2.33299 -4.18773 3.2384 -12.32938 -9.24692 -14.28141 7.55171 0.59708 13.46904
0.06101 0.56976 0.05421 180.66822 0 2.82904 3.3637 -1.09016 0.05123 -54.74962 -13.94611 -9.08911 34.08428 1.09168 33.68124 24.16845 122.33228 -24.74143 -10.38505 2.44346 41.10993 5.30562 90.44447 -34.0581 -23.36577 -6.92832 26.58483 12.49017 -15.04263 -33.28515 -3.8686 -2.22277 -3.82123 3.92566 -11.72839 -9.76469 -15.41443 7.59548 1.66702 13.70683
0.0621 0.57043 0.05372 181.16147 0 2.10341 2.73587 -0.77021 -0.12416 -54.53953 -13.67411 -8.79836 34.33313 0.78679 33.71574 24.09319 122.32063 -24.55718 -10.40892 3.09143 40.81242 3.81672 87.98994 -38.47463 -20.26237 -6.75193 25.94613 12.53841 -14.66518 -28.39903 -3.82487 -2.0815 -3.38766 4.62858 -11.0039 -9.23492 -16.59075 7.60115 2.91743 12.84202
0.06318 0.57112 0.05322 181.6313 0 1.3989 2.12138 -0.46521 -0.26415 -54.36999 -13.41892 -8.53519 34.57209 0.54149 33.74103 24.01993 122.28879 -24.40457 -10.42356 3.65514 40.49891 2.49983 85.82227 -42.42633 -17.49249 -6.57764 25.39647 12.56998 -14.29411 -23.75773 -3.79582 -1.96201 -3.07693 5.30657 -10.3418 -9.21737 -17.71618 7.62464 4.0491 12.51514
0.06433 0.57179 0.0527 182.12777 0 0.66759 1.4915 -0.13172 -0.41189 -54.16582 -13.14621 -8.2572 34.78511 0.30643 33.75778 23.92698 122.23203 -24.15526 -10.44966 4.19534 40.19843 1.22895 83.60384 -46.12959 -14.30512 -6.62898 24.82185 12.66858 -14.39895 -18.83794 -3.73504 -1.80935 -2.3923 6.06536 -9.65326 -9.06111 -18.9855 7.64971 5.34203 12.05982
0.06534 0.57251 0.05222 182.57629 0 -0.0152 0.88964 0.14627 -0.56003 -54.01759 -12.90464 -7.99741 35.05828 0.01909 33.79865 23.87697 122.23136 -24.10609 -10.45277 4.83333 39.87513 -0.22828 81.35247 -50.60918 -11.88065 -6.18871 24.25977 12.62767 -13.47693 -14.42777 -3.73598 -1.71832 -2.44817 6.657 -8.98949 -8.93531 -19.96002 7.6614 6.33961 11.5961
0.06598 0.57336 0.05188 182.89451 0 -0.55445 0.36349 0.26709 -0.705 -54.03984 -12.74786 -7.80276 35.50453 -0.38415 33.89305 23.94302 122.44699 -24.60774 -10.40351 5.65278 39.4799 -2.11286 79.1427 -57.13094 -11.59571 -4.32553 23.75467 12.2045 -9.53152 -11.37603 -3.90697 -1.80968 -4.77038 6.78846 -8.43629 -9.20398 -20.11885 7.64059 6.47649 11.42446
0.06647 0.57428 0.05159 183.16117 0 -1.04367 -0.13204 0.33108 -0.84575 -54.12136 -12.62504 -7.62816 36.00672 -0.83366 34.0116 24.05266 122.70397 -25.31433 -10.32767 6.56908 39.05951 -4.16568 76.92666 -64.36133 -12.11535 -1.98793 23.27336 11.64065 -4.60691 -8.88395 -4.14043 -1.9633 -7.80541 6.74952 -7.91034 -9.52881 -19.9765 7.60793 6.3093 11.27131
0.06702 0.57517 0.05126 183.44331 0 -1.55642 -0.63702 0.42046 -0.97933 -54.17733 -12.4925 -7.44291 36.47239 -1.25804 34.12416 24.14321 122.88736 -25.93373 -10.25277 7.46686 38.64946 -6.13178 74.72524 -71.15332 -12.33783 0.07116 22.79811 11.13838 -0.30209 -6.23743 -4.34762 -2.08572 -10.37584 6.78435 -7.36402 -9.79023 -19.96424 7.58331 6.2809 11.07577
0.06761 0.57603 0.05098 183.75904 0 -2.06707 -1.16241 0.51242 -1.15278 -54.22545 -12.33537 -7.26143 36.9862 -1.70494 34.21845 24.23037 123.29436 -26.5275 -10.22341 8.26763 38.24453 -8.15871 72.44883 -78.48283 -12.26489 2.3989 22.24723 10.6443 4.73745 -3.152 -4.54668 -2.21989 -13.5245 6.83502 -6.84649 -10.17218 -19.98125 7.54629 6.25591 10.98298
